# xmcd
#
# Track frame offsets:
#	150
#	11501
#	35127
#	47615
#	60140
#	69847
#	82585
#	94457
#	109020
#	123921
#	136956
#	146231
#	155966
#	168249
#	180296
#	194040
#	208857
#	221885
#
# Disc length: 3214 seconds
#
# Revision: 1
# Processed by: cddbd v1.5.1PL2 Copyright (c) Steve Scherf et al.
# Submitted via: EasyCDDAExtractor 9.0.0.1
#
DISCID=010c8c12
DTITLE=Various Artist - Strictly Blues CD4
DYEAR=1900
DGENRE=Blues
TTITLE0=John Lee Hooker - Boogie Chillen
TTITLE1=BB King - You ve Done Lost Youre Good Thing Now
TTITLE2=Elmore James - Standing At The Crossroads
TTITLE3=Lightning Slim - Rooster Blues
TTITLE4=Eric Clapton and Jimmy Page - Tribute To Elmore
TTITLE5=Johnny Winter - Leavin Blues
TTITLE6=Canned Heat - Got My Mojo Working
TTITLE7=Lightnin Hopkins - Santa Fe Blues
TTITLE8=Brownie McGhee and Sonny Terry - Down By The Riverside
TTITLE9=Elmore James - Dust My Broom
TTITLE10=Canned Heat - Big Road Blues
TTITLE11=John Lee Hooker - Dusty Road
TTITLE12=Hall and Oates - Deep River Blues
TTITLE13=Johnny Guitar Watson - One Room Country Shack
TTITLE14=Ray Charles - Im Gonna Drown Myself
TTITLE15=John Mayall - Why Worry
TTITLE16=Elmore James - Held My Baby Last Night
TTITLE17=Jelly Roll Morton - Dead Man Blues
EXTD=
EXTT0=
EXTT1=
EXTT2=
EXTT3=
EXTT4=
EXTT5=
EXTT6=
EXTT7=
EXTT8=
EXTT9=
EXTT10=
EXTT11=
EXTT12=
EXTT13=
EXTT14=
EXTT15=
EXTT16=
EXTT17=
PLAYORDER=
